<svg width="24" height="24" viewBox="0 0 24 24" fill="none" xmlns="http://www.w3.org/2000/svg">
<path d="M12.5116 2.6341C12.1783 2.53167 11.822 2.53167 11.4887 2.6341L8.50297 3.55177C6.96862 4.02336 5.51144 4.71669 4.17766 5.6098C3.32982 6.17751 3.7317 7.5 4.75205 7.5H19.2482C20.2686 7.5 20.6705 6.17751 19.8226 5.6098C18.4888 4.71669 17.0317 4.02336 15.4973 3.55177L12.5116 2.6341Z" fill="#242424"/>
<path d="M4.25012 21C4.25012 20.5858 4.58591 20.25 5.00012 20.25H19.0001C19.4143 20.25 19.7501 20.5858 19.7501 21C19.7501 21.4142 19.4143 21.75 19.0001 21.75H5.00012C4.58591 21.75 4.25012 21.4142 4.25012 21Z" fill="#242424"/>
<path d="M6.25012 17C6.25012 17.4142 6.58591 17.75 7.00012 17.75C7.41434 17.75 7.75012 17.4142 7.75012 17L7.75012 11C7.75012 10.5858 7.41434 10.25 7.00012 10.25C6.58591 10.25 6.25012 10.5858 6.25012 11L6.25012 17Z" fill="#242424"/>
<path d="M12.0001 17.75C11.5859 17.75 11.2501 17.4142 11.2501 17L11.2501 11C11.2501 10.5858 11.5859 10.25 12.0001 10.25C12.4143 10.25 12.7501 10.5858 12.7501 11V17C12.7501 17.4142 12.4143 17.75 12.0001 17.75Z" fill="#242424"/>
<path d="M16.2501 17C16.2501 17.4142 16.5859 17.75 17.0001 17.75C17.4143 17.75 17.7501 17.4142 17.7501 17V11C17.7501 10.5858 17.4143 10.25 17.0001 10.25C16.5859 10.25 16.2501 10.5858 16.2501 11V17Z" fill="#242424"/>
</svg>
