<svg width="48" height="24" viewBox="0 0 48 24" fill="none" xmlns="http://www.w3.org/2000/svg">
<rect width="48" height="24" rx="5" fill="#108EE9"/>
<path d="M9.53906 6.65295C10.7366 6.67516 11.9245 7.06887 12.8848 7.78577C14.0149 8.61542 14.8317 9.85724 15.1553 11.2203C15.5411 12.8004 15.2733 14.534 14.4043 15.9117C13.3884 17.5735 11.5086 18.6669 9.55566 18.6891H9.38867C7.94351 18.6652 6.51931 18.0806 5.48047 17.0768C4.30768 15.9705 3.6345 14.3783 3.60547 12.7701V12.6178C3.62083 10.9755 4.31374 9.34542 5.52148 8.22717C6.55179 7.25065 7.94947 6.68286 9.36816 6.65295H9.53906ZM34.2656 9.69006C35.1227 9.52533 36.0413 9.86238 36.5996 10.5299C37.0314 11.0054 37.252 11.6493 37.252 12.2877C37.2545 13.4357 37.252 14.5831 37.252 15.7311C36.8303 15.7336 36.407 15.7243 35.9854 15.7379C35.9691 14.5872 35.9861 13.4355 35.9775 12.2848C35.9844 11.8205 35.7363 11.3581 35.3301 11.1276C34.9084 10.8749 34.3369 10.9125 33.9502 11.2164C33.6158 11.4666 33.4286 11.8828 33.4346 12.2975C33.4312 13.4422 33.4353 14.5864 33.4336 15.7311C33.0076 15.7294 32.5812 15.734 32.1553 15.7272C32.174 14.5263 32.1468 13.3245 32.1689 12.1237C32.2065 10.9627 33.1141 9.88554 34.2656 9.69006ZM27.4268 9.65198C28.7352 9.6385 29.8845 10.7983 29.9365 12.0914C29.9501 12.8343 29.9474 13.5778 29.9453 14.3209C29.944 14.791 29.9427 15.2611 29.9453 15.7311H28.6748C28.6727 15.5134 28.6726 15.2953 28.6729 15.0778C28.6731 14.8603 28.673 14.6425 28.6709 14.4254C28.1718 14.4279 27.6725 14.4278 27.1738 14.4274C26.8249 14.4271 26.4758 14.4267 26.127 14.4274C26.1257 14.5896 26.1263 14.7523 26.127 14.9147C26.128 15.1888 26.1291 15.4631 26.1211 15.7369C25.8395 15.7301 25.5584 15.7313 25.2773 15.7321C25.1368 15.7324 24.996 15.7326 24.8555 15.7321C24.857 15.2931 24.8556 14.8537 24.8545 14.4147C24.8525 13.6465 24.8508 12.8784 24.8633 12.111C24.9043 10.7921 26.0917 9.60674 27.4268 9.65198ZM19.9219 9.66467C21.2645 9.7545 22.4201 10.8788 22.6045 12.2018C22.8271 13.4727 22.1537 14.8435 20.9912 15.4137C20.5542 15.6399 20.0594 15.7339 19.5703 15.733C19.2342 15.7326 18.8984 15.7321 18.5625 15.7321C18.2264 15.7321 17.89 15.7325 17.5537 15.7321C17.5541 14.7184 17.5537 13.7046 17.5537 12.691C17.5537 11.6776 17.5543 10.6642 17.5547 9.651C17.8564 9.65459 18.1581 9.65291 18.46 9.651C18.9472 9.64793 19.4349 9.64465 19.9219 9.66467ZM42.1953 9.65784C43.2307 9.72185 44.1496 10.5109 44.4365 11.4967C44.5424 11.8296 44.5477 12.1776 44.5527 12.525C44.5556 12.7237 44.5584 12.9222 44.5801 13.1178V15.7242C44.2549 15.7332 43.9296 15.7322 43.6045 15.7311C43.4962 15.7307 43.3876 15.7301 43.2793 15.7301C43.2787 15.5899 43.2791 15.4495 43.2793 15.3092C43.2798 15.013 43.2804 14.7165 43.2734 14.4205C42.7585 14.4283 42.2429 14.4275 41.7275 14.4264C41.3962 14.4257 41.0648 14.4247 40.7334 14.4264C40.733 14.6436 40.7334 14.8614 40.7334 15.0787C40.7334 15.296 40.7328 15.5135 40.7324 15.7311H39.4609C39.4605 15.1707 39.46 14.6105 39.46 14.0504C39.46 13.4905 39.4604 12.9306 39.46 12.3707C39.454 11.8312 39.5832 11.283 39.8828 10.8297C40.3736 10.065 41.2795 9.57097 42.1953 9.65784ZM12.7939 11.0358C12.2681 10.6006 11.5304 10.4769 10.874 10.6305C10.3838 10.7518 9.91305 10.9318 9.44238 11.1119C9.1511 11.2234 8.85936 11.3357 8.56348 11.4332C8.02661 11.6065 7.43808 11.7039 6.88672 11.5426C6.70118 11.4945 6.53473 11.4029 6.36816 11.3112C6.27138 11.2578 6.17386 11.2046 6.07324 11.1598C6.02796 11.7939 6.03397 12.431 6.04004 13.068C6.0438 13.4632 6.04756 13.8591 6.03906 14.2535C6.04372 14.3132 6.04186 14.376 6.04004 14.4391C6.03557 14.5943 6.03162 14.7528 6.12305 14.8795C6.57035 15.2116 7.1468 15.3427 7.69824 15.3043C8.30588 15.256 8.88095 15.0495 9.45508 14.8434C10.1607 14.59 10.8651 14.3367 11.627 14.3785C11.9923 14.3854 12.3196 14.5338 12.6445 14.6813C12.7233 14.717 12.8018 14.7531 12.8809 14.7867C12.9032 14.1379 12.9005 13.4881 12.8975 12.8385C12.8954 12.3978 12.8935 11.9568 12.8994 11.5162C12.8979 11.4842 12.8974 11.4504 12.8975 11.4166C12.8977 11.2799 12.8979 11.1356 12.7939 11.0358ZM18.8213 10.9596C18.8301 11.9487 18.8277 12.9382 18.8252 13.9274C18.8248 14.0921 18.8236 14.2568 18.8232 14.4215C18.9584 14.4163 19.0964 14.4196 19.2344 14.4225C19.6209 14.4306 20.0118 14.4381 20.3672 14.2701C21.0226 13.9798 21.4346 13.2469 21.3604 12.5367C21.3108 11.8232 20.771 11.17 20.0703 11.0094C19.7891 10.9485 19.501 10.9536 19.2139 10.9586C19.0827 10.9609 18.9516 10.9636 18.8213 10.9596ZM28.3682 11.4225C27.9132 10.8251 26.9233 10.8115 26.4521 11.3961C26.1058 11.7704 26.1153 12.2754 26.125 12.7594C26.1275 12.8823 26.1304 13.004 26.127 13.1217C26.4659 13.122 26.8054 13.1219 27.1445 13.1217C27.6533 13.1214 28.1624 13.1211 28.6709 13.1227C28.6678 13.0055 28.6701 12.8846 28.6729 12.7623C28.6835 12.2892 28.6944 11.7962 28.3682 11.4225ZM42.9736 11.4186C42.5144 10.8202 41.5195 10.8122 41.0518 11.403C40.7122 11.7759 40.7218 12.2772 40.7314 12.7574C40.7339 12.8806 40.7369 13.0028 40.7334 13.1207H43.2783C43.2745 13.0003 43.2766 12.8752 43.2793 12.7496C43.2894 12.2789 43.3 11.7898 42.9736 11.4186Z" fill="white"/>
</svg>
