<svg width="48" height="24" viewBox="0 0 48 24" fill="none" xmlns="http://www.w3.org/2000/svg">
<rect width="48" height="24" rx="5" fill="#F0F0F0"/>
<path d="M6.85648 8.05879C7.34207 7.97971 7.84027 7.98858 8.32816 8.0373C8.78059 8.13077 9.2372 8.23524 9.65238 8.44453C10.4925 8.84539 11.208 9.49511 11.6846 10.2951C12.0797 11.0343 12.3513 11.8641 12.3106 12.7111C12.3219 14.4498 11.2205 16.1067 9.66019 16.8459C8.64863 17.327 7.47161 17.3928 6.39066 17.1291C5.65947 16.9043 4.95369 16.5402 4.42093 15.9816C3.91358 15.5109 3.53026 14.9114 3.28714 14.2658C2.97001 13.4715 2.94144 12.5879 3.0762 11.7512C3.32283 10.5085 4.09106 9.36883 5.17777 8.7082C5.68352 8.37511 6.26531 8.17748 6.85648 8.05879ZM7.61527 10.216C7.14426 10.207 6.67063 10.1976 6.20706 10.2893C5.84135 10.3265 5.44175 10.4553 5.23929 10.7853C5.01564 11.1017 4.99193 11.4983 4.96976 11.8742C4.96795 11.905 4.96678 11.9356 4.96488 11.966C4.96032 12.0608 4.95186 12.1555 4.94339 12.2502C4.92631 12.4413 4.90891 12.6329 4.92386 12.8254C4.93499 12.9553 4.94334 13.0857 4.9512 13.216C4.97086 13.5418 4.98974 13.8679 5.06058 14.1877C5.14832 14.5908 5.51185 14.9033 5.91214 14.9768C6.65812 15.1112 7.41849 15.0998 8.17386 15.0881C8.24289 15.087 8.31195 15.0851 8.38089 15.0842C8.68995 15.067 8.9991 15.0362 9.30472 14.9875C9.76236 14.9279 10.1671 14.5547 10.2422 14.0959C10.3735 13.5334 10.3964 12.9531 10.3575 12.3791C10.2841 12.0109 10.0238 11.6789 9.66995 11.5441C9.51054 11.4671 9.33363 11.4675 9.16019 11.468H8.04593C7.44894 11.4676 6.85159 11.467 6.25491 11.4699C6.18632 11.4712 6.12207 11.4473 6.05863 11.424C6.0352 11.4154 6.01179 11.4069 5.98831 11.3996C5.98661 11.2711 5.99164 11.0798 6.16409 11.0764C6.61337 11.0662 7.06306 11.0685 7.51273 11.0715C8.10517 11.0754 8.69782 11.08 9.28909 11.0539C9.22489 10.7558 9.04335 10.4443 8.7305 10.3615C8.44782 10.2858 8.155 10.2469 7.86429 10.2199C7.78145 10.2189 7.6983 10.2176 7.61527 10.216ZM9.02542 12.9699C9.07813 12.8147 9.25848 12.7546 9.40921 12.7951C9.50384 12.853 9.57447 12.9515 9.60257 13.0588C9.55841 13.2703 9.48732 13.4771 9.47757 13.6955C9.41522 13.7224 9.35486 13.753 9.29593 13.7873C9.26167 13.7673 9.19279 13.7284 9.15824 13.7082C9.10548 13.4651 8.97847 13.2239 9.02542 12.9699Z" fill="#01ACD7"/>
<path d="M16.8068 9.39121C17.2701 9.33389 17.7613 9.31376 18.2033 9.48691C18.4973 9.5861 18.7612 9.75928 19.0002 9.95468C19.0037 9.80209 19.003 9.64927 19.0021 9.49668C19.0019 9.4498 19.0023 9.40293 19.0021 9.35605C19.1961 9.35725 19.3902 9.35714 19.5842 9.35703C19.8527 9.35688 20.1213 9.35663 20.3898 9.35996C20.3893 11.0694 20.3893 12.7784 20.3898 14.4879C20.3899 14.506 20.3907 14.5244 20.3908 14.5426C20.3922 14.8654 20.3928 15.1956 20.2853 15.5045C20.1121 16.1242 19.6712 16.656 19.1105 16.9674C18.4493 17.3487 17.6505 17.3939 16.9084 17.3004C16.1491 17.2 15.4485 16.8224 14.8957 16.2994C15.0707 16.0922 15.27 15.9079 15.4689 15.7232C15.5919 15.6091 15.7148 15.4941 15.8322 15.3746C16.3603 15.8609 17.1119 16.1034 17.8224 15.9732C18.151 15.9228 18.4765 15.7847 18.6916 15.5221C19.0123 15.203 19.0019 14.725 18.9924 14.3023C18.992 14.2845 18.9908 14.2663 18.9904 14.2486C18.9133 14.2932 18.8425 14.3467 18.7717 14.4C18.6957 14.4572 18.6199 14.5149 18.5363 14.5611C17.8957 14.9368 17.0945 14.9292 16.4006 14.7193C15.4219 14.4055 14.6503 13.5053 14.5305 12.4801C14.4949 12.0794 14.4925 11.6649 14.6271 11.2809C14.9242 10.3111 15.8044 9.54605 16.8068 9.39121ZM45.1838 9.51718C43.9778 11.9946 42.77 14.4706 41.5617 16.9469C41.0279 16.9744 40.4929 16.9563 39.9592 16.9586C40.3422 16.1059 40.7987 15.2871 41.1857 14.4361C40.3949 12.7891 39.5729 11.157 38.7844 9.50937C39.3239 9.50937 39.8639 9.50616 40.4035 9.51133C40.4895 9.77734 40.6357 10.0175 40.7492 10.2721C41.1524 11.1615 41.5739 12.0437 41.9846 12.9303C42.5132 11.7943 43.0393 10.6558 43.5588 9.51523C44.1001 9.50606 44.6418 9.50342 45.1838 9.51718ZM30.3869 9.35801C31.1616 9.33057 31.9463 9.65462 32.4572 10.2418C33.428 11.297 33.3696 13.0989 32.3615 14.11C31.4354 15.0487 29.7958 15.1391 28.7658 14.3209C28.7661 14.5448 28.7669 14.7688 28.7678 14.9928C28.7701 15.6489 28.7726 16.3049 28.7619 16.9605C28.6093 16.9591 28.4566 16.9607 28.3039 16.9615C27.9752 16.9634 27.6456 16.9651 27.3176 16.9439V9.51328C27.7843 9.50583 28.2512 9.50754 28.718 9.51328C28.7252 9.6068 28.7314 9.70055 28.7375 9.79453C28.741 9.84908 28.7444 9.90389 28.7482 9.95859C29.1755 9.53079 29.7939 9.35399 30.3869 9.35801ZM34.3527 9.90879C35.0449 9.39901 35.949 9.28265 36.7834 9.39218C37.3648 9.48742 37.9626 9.73679 38.3146 10.2311C38.5314 10.5556 38.6753 10.9396 38.6701 11.3336C38.6696 11.8192 38.67 12.305 38.6701 12.7906C38.6703 13.4382 38.6704 14.0862 38.6691 14.734C38.3366 14.7288 38.0039 14.729 37.6721 14.7301C37.5673 14.7304 37.4623 14.7309 37.3576 14.7311C37.3559 14.6343 37.3556 14.5376 37.3556 14.441C37.3556 14.3443 37.3564 14.2476 37.3547 14.151C37.0513 14.5426 36.5722 14.7486 36.0969 14.8375C35.4099 14.9287 34.6387 14.8745 34.091 14.4039C33.4275 13.8557 33.4302 12.6752 34.1476 12.1734C34.7278 11.7795 35.4366 11.6789 36.1183 11.5826C36.165 11.576 36.2117 11.5697 36.258 11.5631C36.2919 11.5559 36.326 11.5486 36.3605 11.5416C36.6291 11.4872 36.9111 11.4298 37.1183 11.2408C37.2295 10.9759 37.0364 10.6984 36.7824 10.6158C36.4917 10.5275 36.1808 10.5115 35.882 10.5631C35.4205 10.6377 35.0273 10.9983 34.9142 11.4518C34.6531 11.4154 34.3953 11.3595 34.1379 11.3033C33.9403 11.2602 33.7423 11.2173 33.5431 11.1832C33.6108 10.6636 33.953 10.2265 34.3527 9.90879ZM23.1301 9.42734C23.945 9.26333 24.8367 9.36239 25.5461 9.81601C26.0856 10.1417 26.4963 10.6694 26.6799 11.2721C26.9316 12.064 26.8192 12.9705 26.3478 13.6598C25.8793 14.3542 25.0789 14.7792 24.2531 14.859C23.7445 14.8934 23.2186 14.8762 22.7375 14.691C21.9403 14.4232 21.2714 13.7654 21.0363 12.9527C20.7841 12.1912 20.9008 11.3194 21.3332 10.6451C21.7335 10.0144 22.4047 9.58391 23.1301 9.42734ZM37.2814 12.193C36.9499 12.4435 36.5517 12.5165 36.1525 12.5895C35.8213 12.65 35.4894 12.7102 35.1945 12.8727C35.0483 12.961 34.902 13.1385 34.9777 13.318C35.0283 13.573 35.3225 13.6505 35.5461 13.6637C36.0845 13.698 36.6937 13.6243 37.0939 13.2252C37.301 13.0146 37.292 12.7193 37.2834 12.4371C37.2808 12.3538 37.2783 12.2715 37.2814 12.193ZM25.3342 12.0758C25.3691 11.1513 24.3441 10.4063 23.4719 10.6793C23.2688 10.7372 23.0786 10.8383 22.9123 10.9674C22.3368 11.4211 22.1967 12.3182 22.6066 12.9254C23.0753 13.6975 24.284 13.8495 24.9181 13.2027C25.2282 12.9177 25.3754 12.4926 25.3342 12.0758ZM31.2277 11.0103C30.871 10.6961 30.3544 10.58 29.8928 10.6734C29.4449 10.7623 28.984 11.0333 28.8332 11.4869C28.7573 11.6682 28.7626 11.8624 28.7678 12.0562C28.77 12.1419 28.7715 12.2277 28.7668 12.3121C28.7456 12.6321 28.8725 12.9674 29.1144 13.1812C29.6828 13.7345 30.6951 13.7444 31.2668 13.191C31.8365 12.6158 31.832 11.5597 31.2277 11.0103ZM18.8361 11.3619C18.5327 10.8317 17.8659 10.561 17.2736 10.651C16.9761 10.6951 16.6714 10.7731 16.4416 10.9771C15.7317 11.5196 15.7459 12.7399 16.4592 13.275C16.9352 13.6541 17.6081 13.6405 18.1535 13.4352C18.6047 13.263 18.9983 12.8168 18.9484 12.3111C18.9447 12.2289 18.9467 12.1452 18.9484 12.0611C18.9535 11.8205 18.9584 11.5768 18.8361 11.3619Z" fill="#010101"/>
</svg>
