<svg width="230" height="53" viewBox="0 0 230 53" fill="none" xmlns="http://www.w3.org/2000/svg">
<ellipse cx="28" cy="26.2882" rx="28" ry="26.2882" fill="#CDF95F" fill-opacity="0.5"/>
<path d="M48.7626 11.4934C39.4746 11.8056 37.6729 17.9976 37.9331 21.0546C39.8063 18.0887 42.6161 16.2415 43.7869 15.6886C42.2259 16.6252 39.2339 20.8269 37.9331 22.8107C41.8357 22.8107 48.7626 20.2741 48.7626 11.4934Z" fill="#9DC043"/>
<path d="M43.7869 15.6886C42.2259 16.6252 39.2339 20.8269 37.9331 22.8107C38.6892 22.8107 39.5589 22.7155 40.4698 22.4981C41.1722 20.1406 42.9739 16.9761 43.7869 15.6886Z" fill="#9DC043"/>
<path d="M43.7882 15.6885C42.2272 16.6251 39.2352 20.8268 37.9343 22.8106C38.6905 22.8106 39.5602 22.7154 40.471 22.498C41.1735 20.1405 42.9751 16.976 43.7882 15.6885Z" fill="#3C6C29"/>
<path d="M30.582 15.9536C33.4051 16.1627 38.2147 17.9402 36.6465 24.1089C35.2873 23.0633 31.8366 23.2725 30.791 18.8813C30.6914 18.4631 30.6657 17.2082 30.582 15.9536ZM33.7188 19.6118C34.9734 20.5319 36.1237 22.9229 36.542 24.0034C36.5418 22.0797 34.5553 19.6121 33.7188 19.6118Z" fill="#3C6C29"/>
<path d="M52.0866 27.1033H38.226C33.1318 33.3154 24.2118 38.2533 12.2124 37.2976C33.9813 45.0494 47.3081 33.5809 52.0866 27.1033Z" fill="#9DC043"/>
<path d="M12.2124 37.2976C34.2998 44.9432 47.3081 33.5809 52.0866 27.1033C50.4938 30.4837 44.6533 37.831 33.6096 40.2709C24.849 42.2064 14.7787 39.2975 12.2124 37.2976Z" fill="#3C6C29"/>
<path d="M13.9632 23.1744C10.7038 24.739 9.96553 29.2514 4.56565 31.1938C4.17538 31.3342 3.855 31.6839 4.05686 32.0462C4.97416 33.6926 10.1396 36.1214 17.6268 35.5455C30.7943 34.5326 35.1481 28.0591 38.4341 24.0672C34.7215 28.3777 29.7855 26.9833 28.0865 26.6256C23.0425 25.5637 16.618 21.9001 13.9632 23.1744Z" fill="#3C6C29"/>
<path d="M72.8577 29.514V16.0139H76.489C78.5539 16.0139 80.1702 16.5693 81.3379 17.6801C82.5199 18.7908 83.1109 20.4712 83.1109 22.7212C83.1109 24.9712 82.527 26.6659 81.3593 27.8051C80.2058 28.9444 78.6322 29.514 76.6385 29.514H72.8577ZM75.3569 27.5061H76.3395C77.6639 27.5061 78.6892 27.1216 79.4154 26.3526C80.156 25.5836 80.5262 24.3731 80.5262 22.7212C80.5262 21.0693 80.156 19.8802 79.4154 19.154C78.6892 18.4135 77.6639 18.0432 76.3395 18.0432H75.3569V27.5061ZM88.6101 29.749C87.5278 29.749 86.7375 29.4001 86.2391 28.7023C85.7406 28.0045 85.4914 27.0148 85.4914 25.7331V19.3676H87.9693V25.3913C87.9693 26.2173 88.0903 26.8012 88.3324 27.1429C88.5745 27.4705 88.9661 27.6342 89.5073 27.6342C89.9345 27.6342 90.3119 27.5345 90.6394 27.3352C90.9669 27.1216 91.3158 26.7656 91.6861 26.2671V19.3676H94.1639V29.514H92.1347L91.9424 28.0401H91.8783C91.4226 28.567 90.9384 28.9871 90.4258 29.3004C89.9131 29.5994 89.3079 29.749 88.6101 29.749ZM101.321 29.749C100.467 29.749 99.6692 29.5425 98.9287 29.1295C98.1882 28.7165 97.5901 28.1184 97.1344 27.3352C96.6787 26.5377 96.4509 25.5765 96.4509 24.4515C96.4509 23.3265 96.6787 22.3652 97.1344 21.5678C97.5901 20.7703 98.1882 20.1651 98.9287 19.7521C99.6692 19.3249 100.467 19.1113 101.321 19.1113C102.161 19.1113 102.945 19.3249 103.671 19.7521C104.411 20.1651 105.009 20.7703 105.465 21.5678C105.921 22.3652 106.149 23.3265 106.149 24.4515C106.149 25.5765 105.921 26.5377 105.465 27.3352C105.009 28.1184 104.411 28.7165 103.671 29.1295C102.945 29.5425 102.161 29.749 101.321 29.749ZM101.321 27.741C102.047 27.741 102.61 27.442 103.009 26.8439C103.407 26.2458 103.607 25.4483 103.607 24.4515C103.607 23.4546 103.407 22.6572 103.009 22.0591C102.61 21.4467 102.047 21.1405 101.321 21.1405C100.595 21.1405 100.025 21.4467 99.6123 22.0591C99.2135 22.6572 99.0142 23.4546 99.0142 24.4515C99.0142 25.4483 99.2135 26.2458 99.6123 26.8439C100.025 27.442 100.595 27.741 101.321 27.741ZM182.634 29.749C181.722 29.749 180.839 29.5852 179.985 29.2577C179.13 28.9159 178.383 28.4246 177.742 27.7838L179.195 26.0749C179.679 26.5306 180.227 26.9008 180.839 27.1857C181.452 27.4562 182.071 27.5915 182.698 27.5915C183.424 27.5915 183.979 27.442 184.364 27.1429C184.763 26.8439 184.962 26.438 184.962 25.9254C184.962 25.3985 184.763 25.014 184.364 24.7719C183.979 24.5155 183.488 24.2592 182.89 24.0029L181.074 23.2125C180.619 23.0274 180.177 22.7782 179.75 22.4649C179.337 22.1516 178.995 21.7671 178.725 21.3114C178.468 20.8415 178.34 20.279 178.34 19.6239C178.34 18.8977 178.532 18.2497 178.917 17.6801C179.316 17.0962 179.857 16.6334 180.54 16.2916C181.238 15.9499 182.028 15.779 182.911 15.779C183.695 15.779 184.449 15.9356 185.176 16.2489C185.916 16.548 186.557 16.9681 187.098 17.5092L185.816 19.0899C185.389 18.7196 184.941 18.4348 184.471 18.2355C184.001 18.0361 183.481 17.9364 182.911 17.9364C182.285 17.9364 181.786 18.0788 181.416 18.3636C181.046 18.6342 180.861 19.0045 180.861 19.4744C180.861 19.8162 180.96 20.101 181.16 20.3288C181.359 20.5424 181.615 20.7276 181.929 20.8842C182.256 21.0266 182.612 21.1761 182.997 21.3328L184.791 22.0804C185.603 22.4222 186.258 22.8779 186.756 23.4475C187.269 24.0029 187.525 24.7648 187.525 25.7331C187.525 26.4594 187.326 27.1287 186.927 27.741C186.543 28.3534 185.987 28.8447 185.261 29.2149C184.535 29.5709 183.659 29.749 182.634 29.749ZM189.732 29.514V14.9459H192.21V18.684L192.125 20.6279C192.538 20.2434 193.001 19.8945 193.513 19.5812C194.04 19.2679 194.652 19.1113 195.35 19.1113C196.447 19.1113 197.244 19.4673 197.743 20.1793C198.241 20.8913 198.49 21.8882 198.49 23.1698V29.514H195.991V23.4689C195.991 22.6572 195.87 22.0875 195.628 21.76C195.386 21.4182 195.001 21.2473 194.474 21.2473C194.033 21.2473 193.648 21.3541 193.321 21.5678C192.993 21.7671 192.623 22.0662 192.21 22.4649V29.514H189.732ZM205.668 29.749C204.728 29.749 203.873 29.5425 203.105 29.1295C202.35 28.7023 201.745 28.097 201.289 27.3138C200.847 26.5163 200.627 25.5622 200.627 24.4515C200.627 23.3549 200.847 22.4079 201.289 21.6105C201.745 20.813 202.328 20.2007 203.04 19.7734C203.767 19.332 204.529 19.1113 205.326 19.1113C206.252 19.1113 207.028 19.3177 207.654 19.7307C208.281 20.1437 208.751 20.7133 209.064 21.4396C209.392 22.1659 209.555 22.9989 209.555 23.9388C209.555 24.1809 209.541 24.4087 209.513 24.6224C209.484 24.836 209.463 25.0068 209.449 25.135H203.062C203.161 26.0037 203.475 26.673 204.002 27.1429C204.529 27.6129 205.191 27.8478 205.988 27.8478C206.415 27.8478 206.814 27.7838 207.184 27.6556C207.569 27.5274 207.946 27.3494 208.317 27.1216L209.171 28.6596C208.673 29.0013 208.124 29.2719 207.526 29.4713C206.928 29.6564 206.309 29.749 205.668 29.749ZM203.019 23.4475H207.398C207.398 22.707 207.227 22.1231 206.885 21.6959C206.558 21.2545 206.059 21.0337 205.39 21.0337C204.82 21.0337 204.308 21.2402 203.852 21.6532C203.411 22.0662 203.133 22.6643 203.019 23.4475ZM216.16 29.749C215.221 29.749 214.366 29.5425 213.597 29.1295C212.842 28.7023 212.237 28.097 211.782 27.3138C211.34 26.5163 211.119 25.5622 211.119 24.4515C211.119 23.3549 211.34 22.4079 211.782 21.6105C212.237 20.813 212.821 20.2007 213.533 19.7734C214.259 19.332 215.021 19.1113 215.819 19.1113C216.744 19.1113 217.52 19.3177 218.147 19.7307C218.774 20.1437 219.244 20.7133 219.557 21.4396C219.884 22.1659 220.048 22.9989 220.048 23.9388C220.048 24.1809 220.034 24.4087 220.005 24.6224C219.977 24.836 219.956 25.0068 219.941 25.135H213.554C213.654 26.0037 213.967 26.673 214.494 27.1429C215.021 27.6129 215.683 27.8478 216.481 27.8478C216.908 27.8478 217.307 27.7838 217.677 27.6556C218.062 27.5274 218.439 27.3494 218.809 27.1216L219.664 28.6596C219.165 29.0013 218.617 29.2719 218.019 29.4713C217.421 29.6564 216.801 29.749 216.16 29.749ZM213.512 23.4475H217.891C217.891 22.707 217.72 22.1231 217.378 21.6959C217.051 21.2545 216.552 21.0337 215.883 21.0337C215.313 21.0337 214.801 21.2402 214.345 21.6532C213.903 22.0662 213.626 22.6643 213.512 23.4475ZM225.906 29.749C224.709 29.749 223.862 29.4143 223.364 28.745C222.879 28.0614 222.637 27.1643 222.637 26.0535V21.3328H221.206V19.4744L222.765 19.3676L223.065 16.612H225.115V19.3676H227.678V21.3328H225.115V26.0322C225.115 27.2141 225.592 27.8051 226.546 27.8051C226.717 27.8051 226.895 27.7838 227.08 27.741C227.266 27.6841 227.436 27.6271 227.593 27.5701L227.999 29.4072C227.728 29.4784 227.415 29.5496 227.059 29.6208C226.703 29.7062 226.319 29.749 225.906 29.749Z" fill="#214D23"/>
<path d="M122.95 29.749C121.725 29.749 120.636 29.4784 119.682 28.9372C118.742 28.3961 117.994 27.6129 117.439 26.5876C116.898 25.548 116.627 24.2877 116.627 22.8067C116.627 21.3399 116.905 20.0796 117.46 19.0258C118.03 17.972 118.792 17.1674 119.746 16.612C120.7 16.0424 121.775 15.7576 122.971 15.7576C123.94 15.7576 124.751 15.9356 125.406 16.2916C126.062 16.6476 126.603 17.0393 127.03 17.4665L125.834 18.8977C125.492 18.5559 125.1 18.2711 124.659 18.0432C124.232 17.8154 123.698 17.7014 123.057 17.7014C121.818 17.7014 120.821 18.15 120.066 19.0472C119.312 19.9443 118.934 21.169 118.934 22.7212C118.934 24.3019 119.29 25.548 120.002 26.4594C120.728 27.3708 121.782 27.8265 123.164 27.8265C123.562 27.8265 123.947 27.7695 124.317 27.6556C124.687 27.5417 124.986 27.385 125.214 27.1857V24.1311H122.587V22.2727H127.222V28.1683C126.766 28.6239 126.168 29.0013 125.428 29.3004C124.687 29.5994 123.861 29.749 122.95 29.749ZM130.053 29.514V19.4103H131.848L132.04 21.226H132.104C132.46 20.5709 132.887 20.0654 133.386 19.7094C133.884 19.3391 134.411 19.154 134.966 19.154C135.223 19.154 135.436 19.1753 135.607 19.2181C135.778 19.2465 135.942 19.2964 136.098 19.3676L135.714 21.2901C135.529 21.2331 135.358 21.1904 135.201 21.1619C135.059 21.1334 134.888 21.1192 134.689 21.1192C134.276 21.1192 133.841 21.2829 133.386 21.6105C132.944 21.9238 132.567 22.4792 132.253 23.2766V29.514H130.053ZM141.855 29.749C140.93 29.749 140.09 29.5425 139.335 29.1295C138.594 28.7023 138.003 28.097 137.562 27.3138C137.121 26.5306 136.9 25.5836 136.9 24.4728C136.9 23.3763 137.121 22.4293 137.562 21.6318C138.003 20.8344 138.58 20.222 139.292 19.7948C140.004 19.3676 140.752 19.154 141.535 19.154C142.888 19.154 143.92 19.6026 144.632 20.4997C145.344 21.3826 145.7 22.529 145.7 23.9388C145.7 24.1667 145.686 24.3803 145.658 24.5796C145.629 24.779 145.601 24.9356 145.572 25.0496H139.057C139.157 25.9894 139.484 26.73 140.04 27.2711C140.595 27.798 141.3 28.0614 142.155 28.0614C142.596 28.0614 143.009 27.9974 143.393 27.8692C143.778 27.7268 144.155 27.5345 144.526 27.2925L145.295 28.6809C144.81 29.0084 144.276 29.2719 143.693 29.4713C143.123 29.6564 142.511 29.749 141.855 29.749ZM139.036 23.533H143.757C143.757 22.6928 143.571 22.0448 143.201 21.5891C142.831 21.1192 142.297 20.8842 141.599 20.8842C140.973 20.8842 140.417 21.1121 139.933 21.5678C139.449 22.0235 139.15 22.6785 139.036 23.533ZM152.265 29.749C151.339 29.749 150.499 29.5425 149.744 29.1295C149.004 28.7023 148.413 28.097 147.971 27.3138C147.53 26.5306 147.309 25.5836 147.309 24.4728C147.309 23.3763 147.53 22.4293 147.971 21.6318C148.413 20.8344 148.989 20.222 149.701 19.7948C150.413 19.3676 151.161 19.154 151.944 19.154C153.297 19.154 154.33 19.6026 155.042 20.4997C155.754 21.3826 156.11 22.529 156.11 23.9388C156.11 24.1667 156.095 24.3803 156.067 24.5796C156.038 24.779 156.01 24.9356 155.982 25.0496H149.466C149.566 25.9894 149.894 26.73 150.449 27.2711C151.004 27.798 151.709 28.0614 152.564 28.0614C153.005 28.0614 153.418 27.9974 153.803 27.8692C154.187 27.7268 154.565 27.5345 154.935 27.2925L155.704 28.6809C155.22 29.0084 154.686 29.2719 154.102 29.4713C153.532 29.6564 152.92 29.749 152.265 29.749ZM149.445 23.533H154.166C154.166 22.6928 153.981 22.0448 153.61 21.5891C153.24 21.1192 152.706 20.8842 152.008 20.8842C151.382 20.8842 150.826 21.1121 150.342 21.5678C149.858 22.0235 149.559 22.6785 149.445 23.533ZM158.423 29.514V19.4103H160.217L160.41 20.7988H160.474C160.929 20.3431 161.421 19.9586 161.948 19.6453C162.489 19.3177 163.108 19.154 163.806 19.154C164.888 19.154 165.672 19.5029 166.156 20.2007C166.654 20.8984 166.903 21.8882 166.903 23.1698V29.514H164.682V23.4475C164.682 22.5931 164.554 21.9807 164.297 21.6105C164.041 21.2402 163.621 21.0551 163.037 21.0551C162.581 21.0551 162.176 21.169 161.82 21.3969C161.464 21.6247 161.065 21.9522 160.623 22.3795V29.514H158.423Z" fill="#9DC043"/>
<path d="M120.149 46.8944L104.075 43.255C158.164 30.8381 193.629 36.1902 215.06 39.1874C177.81 35.5479 140.305 38.7592 120.149 46.8944Z" fill="#9DC043"/>
</svg>
