<svg width="291" height="67" viewBox="0 0 291 67" fill="none" xmlns="http://www.w3.org/2000/svg">
<ellipse cx="35.6005" cy="33.4241" rx="35.6005" ry="33.4241" fill="#CDF95F" fill-opacity="0.5"/>
<path d="M61.9997 14.6128C50.1904 15.0097 47.8997 22.8826 48.2304 26.7694C50.6121 22.9984 54.1847 20.6498 55.6733 19.9468C53.6886 21.1377 49.8844 26.48 48.2304 29.0023C53.1924 29.0023 61.9997 25.777 61.9997 14.6128Z" fill="#9DC043"/>
<path d="M55.6733 19.9468C53.6886 21.1377 49.8844 26.48 48.2304 29.0023C49.1918 29.0023 50.2976 28.8812 51.4557 28.6047C52.3488 25.6073 54.6396 21.5839 55.6733 19.9468Z" fill="#9DC043"/>
<path d="M55.6748 19.9473C53.69 21.1381 49.8859 26.4804 48.2319 29.0027C49.1933 29.0027 50.2991 28.8816 51.4572 28.6052C52.3503 25.6078 54.6411 21.5843 55.6748 19.9473Z" fill="#3C6C29"/>
<path d="M38.8838 20.2842C42.4731 20.5501 48.5878 22.81 46.5938 30.6533C44.8655 29.3242 40.4789 29.5896 39.1494 24.0068C39.0228 23.4751 38.9901 21.8794 38.8838 20.2842ZM42.8721 24.9365C44.4671 26.1065 45.9292 29.1459 46.4609 30.5195C46.4608 28.0738 43.9358 24.9374 42.8721 24.9365Z" fill="#3C6C29"/>
<path d="M66.2258 34.4609H48.6027C42.1257 42.3593 30.7845 48.6375 15.5278 47.4223C43.2058 57.2784 60.1501 42.6968 66.2258 34.4609Z" fill="#9DC043"/>
<path d="M15.5278 47.4223C43.6108 57.1434 60.1501 42.6968 66.2258 34.4609C64.2006 38.7589 56.7748 48.1005 42.7333 51.2027C31.5946 53.6636 18.7907 49.9651 15.5278 47.4223Z" fill="#3C6C29"/>
<path d="M17.7535 29.4654C13.6093 31.4547 12.6706 37.192 5.80497 39.6616C5.30876 39.8401 4.90142 40.2848 5.15807 40.7455C6.32438 42.8388 12.892 45.9269 22.4115 45.1946C39.1533 43.9068 44.6889 35.6761 48.8669 30.6006C44.1465 36.0812 37.8707 34.3082 35.7104 33.8534C29.2973 32.5033 21.1289 27.8453 17.7535 29.4654Z" fill="#3C6C29"/>
<path d="M92.6343 37.9248V20.7602H97.2514C99.8768 20.7602 101.932 21.4663 103.417 22.8786C104.919 24.2909 105.671 26.4274 105.671 29.2882C105.671 32.149 104.928 34.3036 103.444 35.7521C101.977 37.2006 99.9764 37.9248 97.4415 37.9248H92.6343ZM95.812 35.3718H97.0613C98.7452 35.3718 100.049 34.883 100.972 33.9052C101.914 32.9275 102.384 31.3885 102.384 29.2882C102.384 27.1879 101.914 25.676 100.972 24.7526C100.049 23.8111 98.7452 23.3403 97.0613 23.3403H95.812V35.3718ZM112.663 38.2236C111.287 38.2236 110.282 37.78 109.648 36.8928C109.014 36.0056 108.698 34.7472 108.698 33.1176V25.0242H111.848V32.6831C111.848 33.7332 112.002 34.4756 112.31 34.9101C112.617 35.3266 113.115 35.5348 113.803 35.5348C114.347 35.5348 114.826 35.4081 115.243 35.1546C115.659 34.883 116.103 34.4303 116.574 33.7966V25.0242H119.724V37.9248H117.144L116.9 36.0508H116.818C116.239 36.7207 115.623 37.2549 114.971 37.6532C114.319 38.0334 113.55 38.2236 112.663 38.2236ZM128.824 38.2236C127.738 38.2236 126.724 37.961 125.782 37.4359C124.841 36.9109 124.08 36.1504 123.501 35.1546C122.922 34.1406 122.632 32.9185 122.632 31.4881C122.632 30.0577 122.922 28.8355 123.501 27.8216C124.08 26.8077 124.841 26.0381 125.782 25.5131C126.724 24.9699 127.738 24.6983 128.824 24.6983C129.892 24.6983 130.888 24.9699 131.812 25.5131C132.753 26.0381 133.514 26.8077 134.093 27.8216C134.672 28.8355 134.962 30.0577 134.962 31.4881C134.962 32.9185 134.672 34.1406 134.093 35.1546C133.514 36.1504 132.753 36.9109 131.812 37.4359C130.888 37.961 129.892 38.2236 128.824 38.2236ZM128.824 35.6706C129.748 35.6706 130.463 35.2904 130.97 34.5299C131.477 33.7695 131.73 32.7555 131.73 31.4881C131.73 30.2207 131.477 29.2067 130.97 28.4463C130.463 27.6677 129.748 27.2784 128.824 27.2784C127.901 27.2784 127.176 27.6677 126.651 28.4463C126.144 29.2067 125.891 30.2207 125.891 31.4881C125.891 32.7555 126.144 33.7695 126.651 34.5299C127.176 35.2904 127.901 35.6706 128.824 35.6706ZM232.209 38.2236C231.05 38.2236 229.927 38.0153 228.841 37.5989C227.755 37.1643 226.804 36.5397 225.989 35.7249L227.836 33.5522C228.452 34.1316 229.149 34.6023 229.927 34.9645C230.706 35.3085 231.494 35.4805 232.29 35.4805C233.214 35.4805 233.92 35.2904 234.409 34.9101C234.916 34.5299 235.169 34.0139 235.169 33.3621C235.169 32.6921 234.916 32.2033 234.409 31.8955C233.92 31.5696 233.295 31.2436 232.535 30.9177L230.226 29.9128C229.647 29.6775 229.085 29.3606 228.542 28.9623C228.017 28.5639 227.583 28.0751 227.239 27.4957C226.913 26.8982 226.75 26.183 226.75 25.3501C226.75 24.4267 226.994 23.6029 227.483 22.8786C227.99 22.1363 228.678 21.5478 229.547 21.1133C230.434 20.6787 231.439 20.4615 232.562 20.4615C233.558 20.4615 234.517 20.6606 235.441 21.059C236.382 21.4392 237.197 21.9733 237.885 22.6614L236.255 24.6711C235.712 24.2004 235.142 23.8382 234.544 23.5848C233.947 23.3313 233.286 23.2045 232.562 23.2045C231.765 23.2045 231.131 23.3856 230.661 23.7477C230.19 24.0917 229.954 24.5625 229.954 25.16C229.954 25.5945 230.081 25.9567 230.335 26.2464C230.588 26.518 230.914 26.7533 231.312 26.9525C231.729 27.1336 232.182 27.3237 232.67 27.5228L234.952 28.4734C235.984 28.908 236.817 29.4874 237.45 30.2116C238.102 30.9177 238.428 31.8864 238.428 33.1176C238.428 34.041 238.175 34.892 237.668 35.6706C237.179 36.4492 236.473 37.0738 235.549 37.5446C234.626 37.9972 233.512 38.2236 232.209 38.2236ZM241.234 37.9248V19.4023H244.385V24.1551L244.276 26.6266C244.801 26.1377 245.39 25.6941 246.041 25.2958C246.711 24.8975 247.49 24.6983 248.377 24.6983C249.771 24.6983 250.785 25.1509 251.419 26.0562C252.053 26.9616 252.37 28.229 252.37 29.8585V37.9248H249.192V30.2388C249.192 29.2067 249.038 28.4825 248.73 28.066C248.422 27.6315 247.934 27.4142 247.264 27.4142C246.702 27.4142 246.213 27.55 245.797 27.8216C245.381 28.0751 244.91 28.4553 244.385 28.9623V37.9248H241.234ZM261.495 38.2236C260.3 38.2236 259.214 37.961 258.236 37.4359C257.277 36.8928 256.507 36.1232 255.928 35.1274C255.366 34.1135 255.086 32.9004 255.086 31.4881C255.086 30.0939 255.366 28.8899 255.928 27.8759C256.507 26.862 257.25 26.0834 258.155 25.5402C259.078 24.9789 260.047 24.6983 261.061 24.6983C262.238 24.6983 263.225 24.9608 264.021 25.4859C264.818 26.011 265.415 26.7352 265.814 27.6586C266.23 28.5821 266.438 29.6413 266.438 30.8363C266.438 31.1441 266.42 31.4338 266.384 31.7054C266.348 31.9769 266.321 32.1942 266.303 32.3572H258.182C258.309 33.4616 258.707 34.3126 259.377 34.9101C260.047 35.5076 260.889 35.8064 261.903 35.8064C262.446 35.8064 262.953 35.7249 263.424 35.562C263.913 35.399 264.392 35.1727 264.863 34.883L265.95 36.8384C265.316 37.273 264.619 37.617 263.858 37.8705C263.098 38.1059 262.31 38.2236 261.495 38.2236ZM258.128 30.2116H263.695C263.695 29.2701 263.478 28.5277 263.043 27.9845C262.627 27.4233 261.993 27.1426 261.142 27.1426C260.418 27.1426 259.766 27.4052 259.187 27.9302C258.626 28.4553 258.273 29.2158 258.128 30.2116ZM274.836 38.2236C273.641 38.2236 272.555 37.961 271.577 37.4359C270.618 36.8928 269.848 36.1232 269.269 35.1274C268.707 34.1135 268.427 32.9004 268.427 31.4881C268.427 30.0939 268.707 28.8899 269.269 27.8759C269.848 26.862 270.59 26.0834 271.496 25.5402C272.419 24.9789 273.388 24.6983 274.402 24.6983C275.579 24.6983 276.565 24.9608 277.362 25.4859C278.159 26.011 278.756 26.7352 279.155 27.6586C279.571 28.5821 279.779 29.6413 279.779 30.8363C279.779 31.1441 279.761 31.4338 279.725 31.7054C279.689 31.9769 279.662 32.1942 279.643 32.3572H271.523C271.65 33.4616 272.048 34.3126 272.718 34.9101C273.388 35.5076 274.23 35.8064 275.244 35.8064C275.787 35.8064 276.294 35.7249 276.765 35.562C277.253 35.399 277.733 35.1727 278.204 34.883L279.29 36.8384C278.657 37.273 277.96 37.617 277.199 37.8705C276.439 38.1059 275.651 38.2236 274.836 38.2236ZM271.469 30.2116H277.036C277.036 29.2701 276.819 28.5277 276.384 27.9845C275.968 27.4233 275.334 27.1426 274.483 27.1426C273.759 27.1426 273.107 27.4052 272.528 27.9302C271.966 28.4553 271.613 29.2158 271.469 30.2116ZM287.227 38.2236C285.706 38.2236 284.628 37.7981 283.995 36.9471C283.379 36.078 283.071 34.9373 283.071 33.525V27.5228H281.252V25.16L283.234 25.0242L283.614 21.5207H286.222V25.0242H289.481V27.5228H286.222V33.4979C286.222 35.0007 286.828 35.7521 288.041 35.7521C288.259 35.7521 288.485 35.7249 288.72 35.6706C288.956 35.5982 289.173 35.5257 289.372 35.4533L289.888 37.789C289.544 37.8795 289.146 37.9701 288.693 38.0606C288.241 38.1692 287.752 38.2236 287.227 38.2236Z" fill="#214D23"/>
<path d="M156.324 38.2236C154.767 38.2236 153.382 37.8795 152.169 37.1915C150.974 36.5035 150.023 35.5076 149.317 34.204C148.629 32.8823 148.285 31.2799 148.285 29.3968C148.285 27.5319 148.638 25.9295 149.344 24.5897C150.068 23.2498 151.037 22.2268 152.25 21.5207C153.463 20.7964 154.83 20.4343 156.351 20.4343C157.582 20.4343 158.615 20.6606 159.447 21.1133C160.28 21.5659 160.968 22.0638 161.511 22.607L159.991 24.4267C159.556 23.9922 159.058 23.63 158.497 23.3403C157.954 23.0506 157.275 22.9058 156.46 22.9058C154.885 22.9058 153.617 23.4761 152.658 24.6168C151.698 25.7575 151.218 27.3146 151.218 29.2882C151.218 31.298 151.671 32.8823 152.576 34.041C153.5 35.1998 154.839 35.7792 156.596 35.7792C157.103 35.7792 157.592 35.7068 158.062 35.562C158.533 35.4171 158.913 35.2179 159.203 34.9645V31.0807H155.862V28.7178H161.756V36.2138C161.177 36.7932 160.416 37.273 159.475 37.6532C158.533 38.0334 157.483 38.2236 156.324 38.2236ZM165.356 37.9248V25.0785H167.637L167.881 27.387H167.963C168.416 26.5542 168.959 25.9114 169.592 25.4587C170.226 24.988 170.896 24.7526 171.602 24.7526C171.928 24.7526 172.2 24.7798 172.417 24.8341C172.634 24.8703 172.842 24.9337 173.042 25.0242L172.553 27.4685C172.317 27.3961 172.1 27.3418 171.901 27.3056C171.72 27.2694 171.503 27.2513 171.249 27.2513C170.724 27.2513 170.172 27.4595 169.592 27.8759C169.031 28.2742 168.551 28.9804 168.153 29.9943V37.9248H165.356ZM180.361 38.2236C179.185 38.2236 178.116 37.961 177.157 37.4359C176.215 36.8928 175.464 36.1232 174.902 35.1274C174.341 34.1316 174.061 32.9275 174.061 31.5152C174.061 30.1211 174.341 28.917 174.902 27.9031C175.464 26.8891 176.197 26.1106 177.102 25.5674C178.008 25.0242 178.958 24.7526 179.954 24.7526C181.674 24.7526 182.987 25.323 183.892 26.4636C184.797 27.5862 185.25 29.0438 185.25 30.8363C185.25 31.126 185.232 31.3976 185.196 31.651C185.16 31.9045 185.123 32.1037 185.087 32.2485H176.804C176.93 33.4435 177.347 34.3851 178.053 35.0731C178.759 35.743 179.655 36.078 180.742 36.078C181.303 36.078 181.828 35.9965 182.317 35.8335C182.806 35.6525 183.286 35.4081 183.756 35.1003L184.734 36.8656C184.118 37.282 183.439 37.617 182.697 37.8705C181.973 38.1059 181.194 38.2236 180.361 38.2236ZM176.776 30.3202H182.779C182.779 29.252 182.543 28.4281 182.072 27.8488C181.602 27.2513 180.923 26.9525 180.036 26.9525C179.239 26.9525 178.533 27.2422 177.917 27.8216C177.301 28.401 176.921 29.2339 176.776 30.3202ZM193.596 38.2236C192.419 38.2236 191.351 37.961 190.391 37.4359C189.45 36.8928 188.699 36.1232 188.137 35.1274C187.576 34.1316 187.295 32.9275 187.295 31.5152C187.295 30.1211 187.576 28.917 188.137 27.9031C188.699 26.8891 189.432 26.1106 190.337 25.5674C191.242 25.0242 192.193 24.7526 193.189 24.7526C194.909 24.7526 196.222 25.323 197.127 26.4636C198.032 27.5862 198.485 29.0438 198.485 30.8363C198.485 31.126 198.467 31.3976 198.431 31.651C198.394 31.9045 198.358 32.1037 198.322 32.2485H190.038C190.165 33.4435 190.582 34.3851 191.288 35.0731C191.994 35.743 192.89 36.078 193.976 36.078C194.538 36.078 195.063 35.9965 195.552 35.8335C196.041 35.6525 196.52 35.4081 196.991 35.1003L197.969 36.8656C197.353 37.282 196.674 37.617 195.932 37.8705C195.208 38.1059 194.429 38.2236 193.596 38.2236ZM190.011 30.3202H196.013C196.013 29.252 195.778 28.4281 195.307 27.8488C194.836 27.2513 194.158 26.9525 193.27 26.9525C192.474 26.9525 191.767 27.2422 191.152 27.8216C190.536 28.401 190.156 29.2339 190.011 30.3202ZM201.426 37.9248V25.0785H203.708L203.952 26.8439H204.034C204.613 26.2645 205.238 25.7756 205.908 25.3773C206.596 24.9608 207.383 24.7526 208.27 24.7526C209.647 24.7526 210.642 25.1962 211.258 26.0834C211.892 26.9706 212.209 28.229 212.209 29.8585V37.9248H209.384V30.2116C209.384 29.1252 209.221 28.3467 208.895 27.8759C208.569 27.4052 208.035 27.1698 207.293 27.1698C206.713 27.1698 206.197 27.3146 205.745 27.6043C205.292 27.894 204.785 28.3105 204.224 28.8536V37.9248H201.426Z" fill="#9DC043"/>
<path d="M152.762 59.6233L132.325 54.996C201.097 39.2087 246.188 46.0136 273.438 49.8243C226.076 45.1969 178.39 49.2799 152.762 59.6233Z" fill="#9DC043"/>
</svg>
