<svg width="230" height="53" viewBox="0 0 230 53" fill="none" xmlns="http://www.w3.org/2000/svg">
<ellipse cx="28" cy="26.2882" rx="28" ry="26.2882" fill="white"/>
<path d="M48.7626 11.4932C39.4746 11.8054 37.6729 17.9974 37.9331 21.0544C39.8063 18.0885 42.6161 16.2413 43.7869 15.6884C42.2259 16.625 39.2339 20.8268 37.9331 22.8106C41.8357 22.8106 48.7626 20.2739 48.7626 11.4932Z" fill="#9DC043"/>
<path d="M43.7869 15.6884C42.2259 16.625 39.2339 20.8268 37.9331 22.8106C38.6892 22.8106 39.5589 22.7153 40.4698 22.4979C41.1722 20.1404 42.9739 16.9759 43.7869 15.6884Z" fill="#9DC043"/>
<path d="M43.7882 15.6885C42.2272 16.6251 39.2352 20.8268 37.9343 22.8106C38.6905 22.8106 39.5602 22.7154 40.471 22.498C41.1735 20.1405 42.9751 16.976 43.7882 15.6885Z" fill="#3C6C29"/>
<path d="M30.582 15.9536C33.4051 16.1628 38.2147 17.9402 36.6465 24.1089C35.2873 23.0633 31.8366 23.2725 30.791 18.8813C30.6914 18.4631 30.6657 17.2083 30.582 15.9536ZM33.7188 19.6118C34.9734 20.5319 36.1237 22.923 36.542 24.0034C36.5418 22.0797 34.5553 19.6121 33.7188 19.6118Z" fill="#3C6C29"/>
<path d="M52.0866 27.1035H38.226C33.1318 33.3156 24.2118 38.2534 12.2124 37.2977C33.9813 45.0496 47.3081 33.5811 52.0866 27.1035Z" fill="#9DC043"/>
<path d="M12.2124 37.2977C34.2998 44.9434 47.3081 33.5811 52.0866 27.1035C50.4938 30.4839 44.6533 37.8311 33.6096 40.271C24.849 42.2065 14.7787 39.2976 12.2124 37.2977Z" fill="#3C6C29"/>
<path d="M13.9632 23.1745C10.7038 24.7391 9.96553 29.2515 4.56565 31.1939C4.17538 31.3343 3.855 31.684 4.05686 32.0463C4.97416 33.6928 10.1396 36.1216 17.6268 35.5456C30.7943 34.5327 35.1481 28.0593 38.4341 24.0673C34.7215 28.3778 29.7855 26.9834 28.0865 26.6257C23.0425 25.5638 16.618 21.9003 13.9632 23.1745Z" fill="#3C6C29"/>
<path d="M72.8577 29.5137V16.0136H76.489C78.5539 16.0136 80.1702 16.569 81.3379 17.6798C82.5199 18.7905 83.1109 20.4709 83.1109 22.7209C83.1109 24.9709 82.527 26.6656 81.3593 27.8048C80.2058 28.944 78.6322 29.5137 76.6385 29.5137H72.8577ZM75.3569 27.5058H76.3395C77.6639 27.5058 78.6892 27.1213 79.4154 26.3523C80.156 25.5833 80.5262 24.3728 80.5262 22.7209C80.5262 21.069 80.156 19.8799 79.4154 19.1537C78.6892 18.4132 77.6639 18.0429 76.3395 18.0429H75.3569V27.5058ZM88.6101 29.7486C87.5278 29.7486 86.7375 29.3997 86.2391 28.702C85.7406 28.0042 85.4914 27.0145 85.4914 25.7328V19.3673H87.9693V25.391C87.9693 26.217 88.0903 26.8008 88.3324 27.1426C88.5745 27.4702 88.9661 27.6339 89.5073 27.6339C89.9345 27.6339 90.3119 27.5342 90.6394 27.3349C90.9669 27.1213 91.3158 26.7652 91.6861 26.2668V19.3673H94.1639V29.5137H92.1347L91.9424 28.0398H91.8783C91.4226 28.5667 90.9384 28.9868 90.4258 29.3001C89.9131 29.5991 89.3079 29.7486 88.6101 29.7486ZM101.321 29.7486C100.467 29.7486 99.6692 29.5422 98.9287 29.1292C98.1882 28.7162 97.5901 28.1181 97.1344 27.3349C96.6787 26.5374 96.4509 25.5762 96.4509 24.4512C96.4509 23.3262 96.6787 22.3649 97.1344 21.5674C97.5901 20.77 98.1882 20.1647 98.9287 19.7518C99.6692 19.3246 100.467 19.1109 101.321 19.1109C102.161 19.1109 102.945 19.3246 103.671 19.7518C104.411 20.1647 105.009 20.77 105.465 21.5674C105.921 22.3649 106.149 23.3262 106.149 24.4512C106.149 25.5762 105.921 26.5374 105.465 27.3349C105.009 28.1181 104.411 28.7162 103.671 29.1292C102.945 29.5422 102.161 29.7486 101.321 29.7486ZM101.321 27.7407C102.047 27.7407 102.61 27.4417 103.009 26.8436C103.407 26.2455 103.607 25.448 103.607 24.4512C103.607 23.4543 103.407 22.6568 103.009 22.0587C102.61 21.4464 102.047 21.1402 101.321 21.1402C100.595 21.1402 100.025 21.4464 99.6123 22.0587C99.2135 22.6568 99.0142 23.4543 99.0142 24.4512C99.0142 25.448 99.2135 26.2455 99.6123 26.8436C100.025 27.4417 100.595 27.7407 101.321 27.7407ZM182.634 29.7486C181.722 29.7486 180.839 29.5849 179.985 29.2573C179.13 28.9156 178.383 28.4243 177.742 27.7834L179.195 26.0746C179.679 26.5303 180.227 26.9005 180.839 27.1853C181.452 27.4559 182.071 27.5912 182.698 27.5912C183.424 27.5912 183.979 27.4417 184.364 27.1426C184.763 26.8436 184.962 26.4377 184.962 25.9251C184.962 25.3982 184.763 25.0137 184.364 24.7716C183.979 24.5152 183.488 24.2589 182.89 24.0026L181.074 23.2122C180.619 23.0271 180.177 22.7779 179.75 22.4646C179.337 22.1513 178.995 21.7668 178.725 21.3111C178.468 20.8412 178.34 20.2787 178.34 19.6236C178.34 18.8973 178.532 18.2494 178.917 17.6798C179.316 17.0959 179.857 16.6331 180.54 16.2913C181.238 15.9495 182.028 15.7787 182.911 15.7787C183.695 15.7787 184.449 15.9353 185.176 16.2486C185.916 16.5476 186.557 16.9677 187.098 17.5089L185.816 19.0896C185.389 18.7193 184.941 18.4345 184.471 18.2352C184.001 18.0358 183.481 17.9361 182.911 17.9361C182.285 17.9361 181.786 18.0785 181.416 18.3633C181.046 18.6339 180.861 19.0041 180.861 19.4741C180.861 19.8159 180.96 20.1007 181.16 20.3285C181.359 20.5421 181.615 20.7272 181.929 20.8839C182.256 21.0263 182.612 21.1758 182.997 21.3325L184.791 22.0801C185.603 22.4219 186.258 22.8776 186.756 23.4472C187.269 24.0026 187.525 24.7644 187.525 25.7328C187.525 26.4591 187.326 27.1284 186.927 27.7407C186.543 28.3531 185.987 28.8444 185.261 29.2146C184.535 29.5706 183.659 29.7486 182.634 29.7486ZM189.732 29.5137V14.9456H192.21V18.6837L192.125 20.6276C192.538 20.2431 193.001 19.8942 193.513 19.5809C194.04 19.2676 194.652 19.1109 195.35 19.1109C196.447 19.1109 197.244 19.467 197.743 20.179C198.241 20.891 198.49 21.8879 198.49 23.1695V29.5137H195.991V23.4686C195.991 22.6568 195.87 22.0872 195.628 21.7597C195.386 21.4179 195.001 21.247 194.474 21.247C194.033 21.247 193.648 21.3538 193.321 21.5674C192.993 21.7668 192.623 22.0659 192.21 22.4646V29.5137H189.732ZM205.668 29.7486C204.728 29.7486 203.873 29.5422 203.105 29.1292C202.35 28.702 201.745 28.0967 201.289 27.3135C200.847 26.516 200.627 25.5619 200.627 24.4512C200.627 23.3546 200.847 22.4076 201.289 21.6102C201.745 20.8127 202.328 20.2003 203.04 19.7731C203.767 19.3317 204.529 19.1109 205.326 19.1109C206.252 19.1109 207.028 19.3174 207.654 19.7304C208.281 20.1434 208.751 20.713 209.064 21.4393C209.392 22.1655 209.555 22.9986 209.555 23.9385C209.555 24.1806 209.541 24.4084 209.513 24.622C209.484 24.8356 209.463 25.0065 209.449 25.1347H203.062C203.161 26.0034 203.475 26.6727 204.002 27.1426C204.529 27.6126 205.191 27.8475 205.988 27.8475C206.415 27.8475 206.814 27.7834 207.184 27.6553C207.569 27.5271 207.946 27.3491 208.317 27.1213L209.171 28.6592C208.673 29.001 208.124 29.2716 207.526 29.471C206.928 29.6561 206.309 29.7486 205.668 29.7486ZM203.019 23.4472H207.398C207.398 22.7067 207.227 22.1228 206.885 21.6956C206.558 21.2541 206.059 21.0334 205.39 21.0334C204.82 21.0334 204.308 21.2399 203.852 21.6529C203.411 22.0659 203.133 22.664 203.019 23.4472ZM216.16 29.7486C215.221 29.7486 214.366 29.5422 213.597 29.1292C212.842 28.702 212.237 28.0967 211.782 27.3135C211.34 26.516 211.119 25.5619 211.119 24.4512C211.119 23.3546 211.34 22.4076 211.782 21.6102C212.237 20.8127 212.821 20.2003 213.533 19.7731C214.259 19.3317 215.021 19.1109 215.819 19.1109C216.744 19.1109 217.52 19.3174 218.147 19.7304C218.774 20.1434 219.244 20.713 219.557 21.4393C219.884 22.1655 220.048 22.9986 220.048 23.9385C220.048 24.1806 220.034 24.4084 220.005 24.622C219.977 24.8356 219.956 25.0065 219.941 25.1347H213.554C213.654 26.0034 213.967 26.6727 214.494 27.1426C215.021 27.6126 215.683 27.8475 216.481 27.8475C216.908 27.8475 217.307 27.7834 217.677 27.6553C218.062 27.5271 218.439 27.3491 218.809 27.1213L219.664 28.6592C219.165 29.001 218.617 29.2716 218.019 29.471C217.421 29.6561 216.801 29.7486 216.16 29.7486ZM213.512 23.4472H217.891C217.891 22.7067 217.72 22.1228 217.378 21.6956C217.051 21.2541 216.552 21.0334 215.883 21.0334C215.313 21.0334 214.801 21.2399 214.345 21.6529C213.903 22.0659 213.626 22.664 213.512 23.4472ZM225.906 29.7486C224.709 29.7486 223.862 29.414 223.364 28.7447C222.879 28.0611 222.637 27.164 222.637 26.0532V21.3325H221.206V19.4741L222.765 19.3673L223.065 16.6117H225.115V19.3673H227.678V21.3325H225.115V26.0319C225.115 27.2138 225.592 27.8048 226.546 27.8048C226.717 27.8048 226.895 27.7834 227.08 27.7407C227.266 27.6838 227.436 27.6268 227.593 27.5698L227.999 29.4069C227.728 29.4781 227.415 29.5493 227.059 29.6205C226.703 29.7059 226.319 29.7486 225.906 29.7486Z" fill="white"/>
<path d="M122.95 29.7486C121.725 29.7486 120.636 29.4781 119.682 28.9369C118.742 28.3958 117.994 27.6126 117.439 26.5872C116.898 25.5477 116.627 24.2874 116.627 22.8064C116.627 21.3396 116.905 20.0793 117.46 19.0255C118.03 17.9717 118.792 17.1671 119.746 16.6117C120.7 16.0421 121.775 15.7573 122.971 15.7573C123.94 15.7573 124.751 15.9353 125.406 16.2913C126.062 16.6473 126.603 17.0389 127.03 17.4662L125.834 18.8973C125.492 18.5556 125.1 18.2708 124.659 18.0429C124.232 17.8151 123.698 17.7011 123.057 17.7011C121.818 17.7011 120.821 18.1497 120.066 19.0469C119.312 19.944 118.934 21.1687 118.934 22.7209C118.934 24.3016 119.29 25.5477 120.002 26.4591C120.728 27.3705 121.782 27.8262 123.164 27.8262C123.562 27.8262 123.947 27.7692 124.317 27.6553C124.687 27.5414 124.986 27.3847 125.214 27.1853V24.1307H122.587V22.2723H127.222V28.1679C126.766 28.6236 126.168 29.001 125.428 29.3001C124.687 29.5991 123.861 29.7486 122.95 29.7486ZM130.053 29.5137V19.41H131.848L132.04 21.2257H132.104C132.46 20.5706 132.887 20.0651 133.386 19.709C133.884 19.3388 134.411 19.1537 134.966 19.1537C135.223 19.1537 135.436 19.175 135.607 19.2178C135.778 19.2462 135.942 19.2961 136.098 19.3673L135.714 21.2898C135.529 21.2328 135.358 21.1901 135.201 21.1616C135.059 21.1331 134.888 21.1189 134.689 21.1189C134.276 21.1189 133.841 21.2826 133.386 21.6102C132.944 21.9235 132.567 22.4788 132.253 23.2763V29.5137H130.053ZM141.855 29.7486C140.93 29.7486 140.09 29.5422 139.335 29.1292C138.594 28.702 138.003 28.0967 137.562 27.3135C137.121 26.5303 136.9 25.5833 136.9 24.4725C136.9 23.376 137.121 22.429 137.562 21.6315C138.003 20.8341 138.58 20.2217 139.292 19.7945C140.004 19.3673 140.752 19.1537 141.535 19.1537C142.888 19.1537 143.92 19.6022 144.632 20.4994C145.344 21.3823 145.7 22.5287 145.7 23.9385C145.7 24.1663 145.686 24.38 145.658 24.5793C145.629 24.7787 145.601 24.9353 145.572 25.0493H139.057C139.157 25.9891 139.484 26.7296 140.04 27.2708C140.595 27.7977 141.3 28.0611 142.155 28.0611C142.596 28.0611 143.009 27.9971 143.393 27.8689C143.778 27.7265 144.155 27.5342 144.526 27.2921L145.295 28.6806C144.81 29.0081 144.276 29.2716 143.693 29.471C143.123 29.6561 142.511 29.7486 141.855 29.7486ZM139.036 23.5326H143.757C143.757 22.6924 143.571 22.0445 143.201 21.5888C142.831 21.1189 142.297 20.8839 141.599 20.8839C140.973 20.8839 140.417 21.1117 139.933 21.5674C139.449 22.0231 139.15 22.6782 139.036 23.5326ZM152.265 29.7486C151.339 29.7486 150.499 29.5422 149.744 29.1292C149.004 28.702 148.413 28.0967 147.971 27.3135C147.53 26.5303 147.309 25.5833 147.309 24.4725C147.309 23.376 147.53 22.429 147.971 21.6315C148.413 20.8341 148.989 20.2217 149.701 19.7945C150.413 19.3673 151.161 19.1537 151.944 19.1537C153.297 19.1537 154.33 19.6022 155.042 20.4994C155.754 21.3823 156.11 22.5287 156.11 23.9385C156.11 24.1663 156.095 24.38 156.067 24.5793C156.038 24.7787 156.01 24.9353 155.982 25.0493H149.466C149.566 25.9891 149.894 26.7296 150.449 27.2708C151.004 27.7977 151.709 28.0611 152.564 28.0611C153.005 28.0611 153.418 27.9971 153.803 27.8689C154.187 27.7265 154.565 27.5342 154.935 27.2921L155.704 28.6806C155.22 29.0081 154.686 29.2716 154.102 29.471C153.532 29.6561 152.92 29.7486 152.265 29.7486ZM149.445 23.5326H154.166C154.166 22.6924 153.981 22.0445 153.61 21.5888C153.24 21.1189 152.706 20.8839 152.008 20.8839C151.382 20.8839 150.826 21.1117 150.342 21.5674C149.858 22.0231 149.559 22.6782 149.445 23.5326ZM158.423 29.5137V19.41H160.217L160.41 20.7985H160.474C160.929 20.3428 161.421 19.9583 161.948 19.645C162.489 19.3174 163.108 19.1537 163.806 19.1537C164.888 19.1537 165.672 19.5026 166.156 20.2003C166.654 20.8981 166.903 21.8879 166.903 23.1695V29.5137H164.682V23.4472C164.682 22.5928 164.554 21.9804 164.297 21.6102C164.041 21.2399 163.621 21.0548 163.037 21.0548C162.581 21.0548 162.176 21.1687 161.82 21.3966C161.464 21.6244 161.065 21.9519 160.623 22.3792V29.5137H158.423Z" fill="#9DC043"/>
<path d="M120.149 46.894L104.075 43.2546C158.164 30.8377 193.629 36.1898 215.06 39.187C177.81 35.5475 140.305 38.7588 120.149 46.894Z" fill="#9DC043"/>
</svg>
