<svg width="26" height="26" viewBox="0 0 26 26" fill="none" xmlns="http://www.w3.org/2000/svg">
<path d="M13.0007 23.8333C10.4909 23.2013 8.41887 21.7612 6.78449 19.513C5.1501 17.2647 4.33326 14.7687 4.33398 12.025V5.41663L13.0007 2.16663L21.6673 5.41663V12.025C21.6673 14.7694 20.8505 17.2658 19.2168 19.514C17.5832 21.7623 15.5111 23.2021 13.0007 23.8333ZM13.0007 21.5583C14.752 21.0166 16.2145 19.9467 17.3882 18.3484C18.5618 16.7501 19.2479 14.9673 19.4465 13H13.0007V4.46871L6.50065 6.90621V12.5125C6.50065 12.6388 6.51871 12.8013 6.55482 13H13.0007V21.5583Z" fill="#3C6C29"/>
</svg>
