<svg width="26" height="26" viewBox="0 0 26 26" fill="none" xmlns="http://www.w3.org/2000/svg">
<path fill-rule="evenodd" clip-rule="evenodd" d="M15.9804 2.07346C15.3734 2.90884 15.0053 3.89371 14.9156 4.92241C14.8258 5.95112 15.0179 6.98484 15.4711 7.91269C15.9242 8.84054 16.6215 9.62751 17.488 10.1892C18.3545 10.7508 19.3575 11.066 20.3895 11.1009V11.1128C20.4058 11.3273 20.422 11.5472 20.4437 11.7595C20.7005 14.1938 21.2855 15.8654 21.8477 16.9628C22.2215 17.694 22.5887 18.1794 22.8487 18.473C22.9628 18.6024 23.0859 18.7237 23.217 18.8359L23.2279 18.8424C23.3669 18.9433 23.4703 19.0856 23.5234 19.249C23.5765 19.4123 23.5764 19.5883 23.5232 19.7516C23.47 19.9149 23.3664 20.0572 23.2273 20.1579C23.0882 20.2587 22.9208 20.3128 22.749 20.3125H3.24904C3.07766 20.3123 2.91073 20.2579 2.77213 20.1571C2.63352 20.0563 2.53034 19.9142 2.47734 19.7512C2.42433 19.5883 2.42422 19.4127 2.47702 19.2497C2.52981 19.0866 2.63281 18.9444 2.77129 18.8435L2.77996 18.8359L2.84929 18.7774C2.91429 18.7189 3.01937 18.6203 3.14937 18.473C3.40937 18.1805 3.77662 17.6951 4.15037 16.9639C4.89787 15.5025 5.68654 13.0325 5.68654 9.09996C5.68654 7.06221 6.44487 5.09813 7.80987 3.64213C9.17704 2.18396 11.0425 1.35413 12.999 1.35413C13.4136 1.35413 13.8227 1.3906 14.2265 1.46354C14.4843 1.51013 15.3293 1.77338 15.9804 2.07346Z" fill="#3C6C29"/>
<path fill-rule="evenodd" clip-rule="evenodd" d="M16.5205 5.41663C16.5205 4.33918 16.9486 3.30587 17.7104 2.544C18.4723 1.78214 19.5056 1.35413 20.583 1.35413C21.6605 1.35413 22.6938 1.78214 23.4557 2.544C24.2175 3.30587 24.6455 4.33918 24.6455 5.41663C24.6455 6.49407 24.2175 7.52738 23.4557 8.28925C22.6938 9.05111 21.6605 9.47913 20.583 9.47913C19.5056 9.47913 18.4723 9.05111 17.7104 8.28925C16.9486 7.52738 16.5205 6.49407 16.5205 5.41663ZM10.7182 22.0469C10.8105 21.9934 10.9125 21.9586 11.0183 21.9445C11.1241 21.9304 11.2316 21.9373 11.3347 21.9648C11.4378 21.9922 11.5345 22.0397 11.6192 22.1046C11.704 22.1694 11.7751 22.2503 11.8286 22.3426C11.9477 22.5477 12.1185 22.7179 12.3241 22.8362C12.5296 22.9546 12.7626 23.0168 12.9997 23.0168C13.2369 23.0168 13.4698 22.9546 13.6754 22.8362C13.8809 22.7179 14.0517 22.5477 14.1708 22.3426C14.2244 22.2503 14.2956 22.1694 14.3804 22.1046C14.4652 22.0398 14.562 21.9923 14.6651 21.9649C14.7683 21.9375 14.8758 21.9307 14.9816 21.9449C15.0874 21.959 15.1894 21.9939 15.2818 22.0474C15.3741 22.101 15.455 22.1722 15.5198 22.257C15.5846 22.3418 15.632 22.4386 15.6594 22.5418C15.6869 22.6449 15.6937 22.7525 15.6795 22.8583C15.6654 22.9641 15.6305 23.066 15.577 23.1584C15.3151 23.61 14.9392 23.9848 14.4869 24.2454C14.0346 24.506 13.5217 24.6431 12.9997 24.6431C12.4777 24.6431 11.9649 24.506 11.5125 24.2454C11.0602 23.9848 10.6843 23.61 10.4225 23.1584C10.3688 23.066 10.3339 22.964 10.3197 22.8581C10.3055 22.7522 10.3123 22.6445 10.3398 22.5413C10.3673 22.438 10.4149 22.3412 10.4798 22.2564C10.5447 22.1716 10.6257 22.1004 10.7182 22.0469Z" fill="#3C6C29"/>
</svg>
