<svg width="48" height="24" viewBox="0 0 48 24" fill="none" xmlns="http://www.w3.org/2000/svg">
<rect width="48" height="24" rx="5" fill="#F0592C"/>
<rect x="5.33008" y="11.241" width="8.90917" height="5.85698" rx="1.08463" transform="rotate(-20.4439 5.33008 11.241)" fill="white"/>
<path d="M8.01981 11.3101C7.80352 10.9538 8.0501 10.4964 8.46659 10.4812L16.6382 10.1841C17.0435 10.1693 17.3801 10.4939 17.3801 10.8995V12.1854H9.57521C8.93944 12.1854 8.34976 11.8535 8.01981 11.3101Z" fill="#F0592C"/>
<rect x="5.56836" y="10.7703" width="10.4992" height="6.44268" rx="1.19309" fill="white"/>
<path d="M9.98874 12.8747C10.0392 12.5444 10.3242 12.2784 10.6498 12.2232C10.9932 12.1629 11.3683 12.2312 11.6574 12.4301C11.7352 12.4718 11.7253 12.5893 11.6431 12.6206C11.5244 12.6044 11.4267 12.5254 11.314 12.4892C11.0388 12.384 10.7026 12.3459 10.4481 12.5238C10.2357 12.6635 10.1221 12.9819 10.2921 13.1971C10.5334 13.5095 10.9523 13.5532 11.2917 13.7029C11.518 13.7986 11.7451 13.9451 11.8479 14.1777C11.9742 14.4838 11.8976 14.8812 11.6228 15.0821C11.3334 15.2945 10.9459 15.3255 10.6029 15.252C10.3298 15.1893 10.0507 15.0781 9.86328 14.8614C9.91092 14.8165 9.96968 14.7164 10.0439 14.7827C10.3123 14.967 10.6311 15.0904 10.9602 15.0789C11.179 15.0638 11.4096 14.9924 11.5605 14.8252C11.7002 14.6724 11.7253 14.4294 11.6185 14.2516C11.4859 14.0296 11.2381 13.9133 11.0039 13.8295C10.7303 13.7414 10.4389 13.6644 10.2222 13.4643C10.0554 13.3206 9.95459 13.0959 9.98874 12.8747Z" fill="#F0592C"/>
<path d="M26.8725 11.8473C27.2632 11.5326 27.824 11.3979 28.2856 11.6384C28.9772 11.9163 29.2961 12.8342 28.892 13.4704C28.4962 14.1908 27.4542 14.2817 26.8373 13.7975C26.8365 14.2953 26.8642 14.7957 26.8305 15.2927C26.8284 15.491 26.5706 15.4716 26.4389 15.4186C26.3453 15.2821 26.3758 15.106 26.3666 14.9509C26.3767 13.9072 26.3617 12.8638 26.3735 11.821C26.3439 11.6674 26.5065 11.4798 26.6635 11.5456C26.8173 11.5561 26.8161 11.7436 26.8725 11.8473ZM40.8373 11.696C40.9774 12.2554 41.1029 12.8182 41.2455 13.3776C41.6041 12.8317 41.9117 12.2554 42.2475 11.696C42.4499 11.696 42.6526 11.6971 42.8559 11.6979C42.1225 12.8827 41.4021 14.0757 40.6586 15.2546C40.4672 15.252 40.2758 15.2514 40.0844 15.2497C40.3384 14.8464 40.6007 14.4481 40.8471 14.0397C40.6277 13.2616 40.4286 12.4766 40.2201 11.696H40.8373ZM38.8168 11.6149C39.1448 11.5956 39.5308 11.629 39.7612 11.8942C39.9333 12.0731 39.9619 12.3444 39.9223 12.5798C39.8371 13.1189 39.7342 13.6556 39.6371 14.193C39.455 14.1922 39.2716 14.1911 39.0903 14.1911C39.1063 14.1178 39.1386 13.9707 39.1547 13.8971C38.8027 14.2505 38.2159 14.4186 37.7738 14.1335C37.3576 13.8533 37.4479 13.2114 37.7934 12.9108C38.2195 12.5109 38.8641 12.5416 39.3881 12.696C39.3628 12.5204 39.4066 12.2818 39.2201 12.1813C38.87 11.9516 38.4385 12.1442 38.1518 12.3854C38.0396 12.2867 37.9271 12.1873 37.8149 12.0886C38.0957 11.8415 38.434 11.6387 38.8168 11.6149ZM35.5326 10.6813C35.9797 10.6923 36.4274 10.6723 36.8744 10.6891C37.2769 10.7077 37.6735 10.9977 37.7319 11.4128C37.8379 12.0818 37.2739 12.7114 36.6293 12.8102C36.324 12.8523 36.0145 12.8413 35.7074 12.8464C35.6315 13.2934 35.547 13.7394 35.477 14.1882C35.2865 14.1907 35.0963 14.1925 34.9067 14.195C35.1168 13.0238 35.3208 11.8517 35.5326 10.6813ZM32.7719 11.7673C33.236 11.396 33.9684 11.4529 34.3803 11.8747C34.6073 12.1507 34.7326 12.5385 34.6381 12.8913C34.5336 12.9827 34.3852 12.962 34.2572 12.9704C33.751 12.9712 33.2439 12.9608 32.7377 12.9743C32.8305 13.2054 32.9085 13.4889 33.1655 13.5895C33.5205 13.7321 33.9206 13.6491 34.2631 13.5075C34.4969 13.3412 34.7023 13.782 34.4711 13.9011C33.9504 14.2038 33.2218 14.2471 32.7299 13.8649C32.1286 13.3417 32.1571 12.2677 32.7719 11.7673ZM30.0131 11.7243C30.5641 11.3311 31.4717 11.518 31.7446 12.1598C31.8391 12.3919 31.9001 12.6639 31.809 12.9069C31.7104 12.9757 31.584 12.9619 31.4711 12.9694C30.9565 12.9719 30.4399 12.9601 29.9252 12.9753C30.0137 13.1945 30.0769 13.4682 30.3168 13.5739C30.688 13.7477 31.1161 13.6437 31.4789 13.4977C31.694 13.3776 31.883 13.7793 31.6713 13.8864C31.1718 14.1967 30.4787 14.2392 29.975 13.9128C29.2912 13.4014 29.3168 12.2123 30.0131 11.7243ZM20.7504 9.89715C20.8997 9.86021 21.0112 9.98968 21.0053 10.1305C21.0315 10.6757 21.0103 11.2231 21.0112 11.7682C21.266 11.6198 21.5408 11.4712 21.8471 11.5007C22.3863 11.4804 22.9186 11.9474 22.9145 12.4968C22.9178 12.9524 22.9138 13.4083 22.9096 13.8639C22.9493 14.1011 22.598 14.1811 22.4731 14.0055C22.3955 13.4605 22.5122 12.9006 22.4135 12.3581C22.2562 11.8749 21.5187 11.8448 21.2319 12.2253C20.8059 12.724 21.138 13.4252 20.976 14.0007C20.8992 14.1422 20.6695 14.1283 20.5766 14.0104C20.5488 13.8738 20.5499 13.7327 20.5483 13.5944C20.555 12.4703 20.5478 11.3455 20.5512 10.2214C20.5504 10.0897 20.5716 9.88113 20.7504 9.89715ZM24.3373 11.5593C24.9914 11.3685 25.732 11.8096 25.9252 12.4518C26.0179 12.8154 25.9784 13.2266 25.7592 13.5387C25.3151 14.2387 24.1647 14.3006 23.6449 13.6569C23.3092 13.2621 23.2203 12.6565 23.4858 12.2009C23.6645 11.8805 23.9892 11.6606 24.3373 11.5593ZM18.1899 10.0231C18.7182 9.78092 19.3752 9.87852 19.852 10.195C20.0725 10.3075 19.9148 10.7415 19.6694 10.6042C19.3031 10.4236 18.8836 10.2732 18.476 10.4098C18.0751 10.5001 17.9122 11.1141 18.2641 11.3571C18.7324 11.725 19.4061 11.7112 19.8315 12.155C20.3134 12.56 20.3341 13.3713 19.8354 13.7721C19.1375 14.34 18.0666 14.1032 17.4438 13.5319C17.2725 13.3682 17.4921 13.2191 17.6137 13.1179C17.9942 13.3769 18.4098 13.6449 18.8881 13.6432C19.1775 13.6314 19.5044 13.5304 19.6596 13.2663C19.7791 13.03 19.7552 12.705 19.5444 12.527C19.0819 12.0791 18.3547 12.0995 17.8881 11.654C17.383 11.2067 17.5875 10.2814 18.1899 10.0231ZM39.308 13.1423C38.9799 13.0108 38.5736 12.9215 38.2582 13.1315C38.0443 13.2676 37.9639 13.6397 38.2309 13.7663C38.6957 13.9686 39.1754 13.5809 39.308 13.1423ZM28.5043 12.4391C28.3034 12.0342 27.7811 11.9012 27.3803 12.07C27.015 12.2329 26.7674 12.6856 26.9311 13.0729C27.0765 13.5267 27.6385 13.7901 28.0746 13.5817C28.5098 13.4204 28.7723 12.8475 28.5043 12.4391ZM25.4662 13.0866C25.71 12.5009 25.0765 11.8474 24.4799 12.0153C23.8897 12.0928 23.5682 12.8761 23.9789 13.3249C24.3587 13.8528 25.2676 13.7005 25.4662 13.0866ZM31.061 12.07C30.8526 11.9841 30.6119 11.9818 30.3969 12.0417C30.1763 12.1036 30.0822 12.3346 29.976 12.5134C30.4468 12.521 30.9194 12.5201 31.391 12.5134C31.3051 12.3515 31.2412 12.1502 31.061 12.07ZM33.4965 12.0016C33.1542 11.9597 32.9126 12.226 32.7953 12.5143C33.2643 12.5186 33.7336 12.5193 34.2026 12.5134C34.1155 12.1955 33.8372 11.957 33.4965 12.0016ZM36.0014 11.2214C35.9347 11.5816 35.8725 11.9443 35.8041 12.3054C36.1955 12.2801 36.6677 12.4114 36.9799 12.1032C37.2125 11.8904 37.2584 11.4133 36.9321 11.2682C36.6317 11.1781 36.3101 11.2332 36.0014 11.2214Z" fill="white"/>
</svg>
