<svg width="24" height="24" viewBox="0 0 24 24" fill="none" xmlns="http://www.w3.org/2000/svg">
<path fill-rule="evenodd" clip-rule="evenodd" d="M21.0106 10.1713L21.0132 13.7942C20.9877 14.1393 20.9548 14.484 20.9146 14.8281C20.8473 15.4035 20.3795 15.8677 19.7921 15.9333C17.9524 16.139 16.0485 16.139 14.2088 15.9333C13.6214 15.8677 13.1536 15.4035 13.0863 14.8281C12.8666 12.9491 12.8666 11.0509 13.0863 9.17189C13.1536 8.59648 13.6214 8.13234 14.2088 8.06669C16.0485 7.86107 17.9524 7.86107 19.7921 8.06669C20.3795 8.13234 20.8473 8.59648 20.9146 9.17189C20.9535 9.5045 20.9855 9.8377 21.0106 10.1713ZM17.0004 10.5C16.172 10.5 15.5004 11.1716 15.5004 12C15.5004 12.8284 16.172 13.5 17.0004 13.5C17.8289 13.5 18.5004 12.8284 18.5004 12C18.5004 11.1716 17.8289 10.5 17.0004 10.5Z" fill="#242424"/>
<path d="M20.404 6.03973C20.5595 6.30899 20.2677 6.61051 19.9587 6.57597C18.0082 6.35798 15.9927 6.35798 14.0422 6.57597C12.7728 6.71784 11.7462 7.71738 11.5965 8.99764C11.3632 10.9924 11.3632 13.0076 11.5965 15.0024C11.7462 16.2826 12.7728 17.2822 14.0422 17.4241C15.9927 17.642 18.0082 17.642 19.9587 17.4241C20.2698 17.3893 20.564 17.6929 20.407 17.9637C19.6284 19.3065 18.2403 20.2437 16.6273 20.4134L15.9754 20.482C12.6645 20.8304 9.32511 20.8074 6.01935 20.4135L5.58741 20.362C3.80529 20.1497 2.39324 18.7573 2.15587 16.9784C1.71497 13.6741 1.71497 10.3259 2.15587 7.02166C2.39324 5.2427 3.80529 3.85034 5.58741 3.63798L6.01935 3.58651C9.3251 3.19258 12.6645 3.16961 15.9754 3.51801L16.6273 3.58661C18.2416 3.75649 19.6276 4.6951 20.404 6.03973Z" fill="#242424"/>
</svg>
